<svg xmlns="http://www.w3.org/2000/svg" viewBox="-1040 800 3000 1470">
  <defs>
    <style>
      .cls-1 {
        fill: #fff;
      }

      .cls-2, .cls-3 {
        stroke: none;
      }

      .cls-3 {
        fill: #707070;
      }
    </style>
  </defs>
  <g id="Path_40" data-name="Path 40" class="cls-1" transform="translate(839.045 2714.646) rotate(-111)">
    <path class="cls-2" d="M 1066 2020.473266601563 C 1047.765258789063 2020.473266601563 1029.317138671875 2020.03173828125 1011.167602539063 2019.160888671875 C 993.1568603515625 2018.296630859375 974.9510498046875 2016.986206054688 957.0555419921875 2015.265625 C 939.29052734375 2013.557739257813 921.3491821289063 2011.39990234375 903.7302856445313 2008.851196289063 C 886.233154296875 2006.3203125 868.5792236328125 2003.336181640625 851.2589721679688 1999.98095703125 C 834.0515747070313 1996.647705078125 816.7073974609375 1992.858520507813 799.7084350585938 1988.71826171875 C 782.8126220703125 1984.603271484375 765.80078125 1980.030151367188 749.1455078125 1975.12646484375 C 732.5836791992188 1970.250122070313 715.9268188476563 1964.914794921875 699.6370849609375 1959.268798828125 C 683.4315795898438 1953.651733398438 667.15185546875 1947.57568359375 651.2505493164063 1941.208740234375 C 619.6428833007813 1928.553588867188 588.3057861328125 1914.263305664063 558.1097412109375 1898.7353515625 C 528.12841796875 1883.317749023438 498.571044921875 1866.319580078125 470.2586975097656 1848.213012695313 C 442.0831604003906 1830.194091796875 414.4857788085938 1810.658569335938 388.2328796386719 1790.149291992188 C 362.0442199707031 1769.690063476563 336.5868530273438 1747.787719726563 312.5679016113281 1725.050659179688 C 288.5489501953125 1702.313842773438 265.4118347167969 1678.21533203125 243.7994689941406 1653.4248046875 C 222.1342163085938 1628.573852539063 201.4976348876953 1602.449829101563 182.4631652832031 1575.779052734375 C 163.3363189697266 1548.978515625 145.3802642822266 1520.999877929688 129.0942077636719 1492.619873046875 C 120.9144744873047 1478.365844726563 112.9978942871094 1463.734375 105.5647354125977 1449.131469726563 C 98.10079193115234 1434.468017578125 90.92210388183594 1419.436645507813 84.22815704345703 1404.454833984375 C 77.50263214111328 1389.402954101563 71.08421325683594 1373.993286132813 65.15105438232422 1358.653564453125 C 59.18684387207031 1343.234375 53.55105209350586 1327.467163085938 48.40026473999023 1311.790649414063 C 43.22026443481445 1296.025146484375 38.38973617553711 1279.922485351563 34.04289627075195 1263.929809570313 C 29.66973686218262 1247.83935546875 25.66684150695801 1231.421997070313 22.14605331420898 1215.134033203125 C 18.60210609436035 1198.739624023438 15.44973659515381 1182.029296875 12.77631568908691 1165.467163085938 C 10.08447360992432 1148.789794921875 7.804736614227295 1131.807495117188 6.000789642333984 1114.991943359375 C 4.18342113494873 1098.052978515625 2.799210548400879 1080.820068359375 1.886315822601318 1063.77197265625 C 0.9663158059120178 1046.5927734375 0.5 1029.13037109375 0.5 1011.870361328125 C 0.5 989.6353759765625 1.437105298042297 967.5182495117188 3.285526275634766 946.1332397460938 C 5.103157997131348 925.1016845703125 7.854736804962158 904.171142578125 11.46368408203125 883.9224853515625 C 15.00921058654785 864.0285034179688 19.48526382446289 844.2166748046875 24.76710510253906 825.0374755859375 C 29.95105171203613 806.215087890625 36.06158065795898 787.45458984375 42.92947387695313 769.2774658203125 C 49.66131591796875 751.461181640625 57.31684112548828 733.6848754882813 65.68421173095703 716.4425048828125 C 73.87368774414063 699.56640625 82.98500061035156 682.7066650390625 92.76499938964844 666.3319702148438 C 102.3215789794922 650.3311767578125 112.7989501953125 634.3209228515625 123.9060516357422 618.7459106445313 C 134.7389526367188 603.5556640625 146.4931640625 588.3277587890625 158.8418426513672 573.485107421875 C 170.8589477539063 559.0414428710938 183.8000030517578 544.52880859375 197.3060455322266 530.3504028320313 C 210.4142150878906 516.589599609375 224.4528961181641 502.7253723144531 239.0323638916016 489.1427307128906 C 253.1371002197266 476.0022277832031 268.1839599609375 462.7195739746094 283.7547302246094 449.6635437011719 C 298.7592163085938 437.0822143554688 314.7239379882813 424.3140563964844 331.2060546875 411.7138061523438 C 347.0097351074219 399.6322021484375 363.8031616210938 387.3119506835938 381.1199951171875 375.0951232910156 C 397.6168518066406 363.4569396972656 415.1489562988281 351.5174865722656 433.2294616699219 339.6087951660156 C 466.4981689453125 317.6961669921875 502.3939514160156 295.3316955566406 542.9673461914063 271.2372131347656 C 596.65869140625 239.3527374267578 653.5886840820313 190.7743225097656 713.861328125 139.3435363769531 C 744.37158203125 113.3093185424805 775.9205322265625 86.3887939453125 807.939453125 60.9274787902832 C 825.2184448242188 47.18747711181641 841.0760498046875 35.10116195678711 856.4189453125 23.97800445556641 C 873.7020874023438 11.44826698303223 889.8407592773438 0.491162121295929 905.7568359375 -9.519627571105957 C 922.9076538085938 -20.3069953918457 939.7697143554688 -29.92489051818848 955.8744506835938 -38.10646820068359 C 973.165771484375 -46.89067840576172 990.263671875 -54.36594390869141 1006.693176269531 -60.32489013671875 C 1015.298156738281 -63.44594192504883 1023.927368164063 -66.22699737548828 1032.3408203125 -68.59120941162109 C 1040.988159179688 -71.02120971679688 1049.666259765625 -73.08304595947266 1058.134521484375 -74.72015380859375 C 1066.821899414063 -76.39962768554688 1075.546020507813 -77.68173217773438 1084.06494140625 -78.53041839599609 C 1092.790283203125 -79.40015411376953 1101.5576171875 -79.8409423828125 1110.123413085938 -79.8409423828125 C 1121.313110351563 -79.8409423828125 1132.592651367188 -78.57752227783203 1143.648681640625 -76.08594512939453 C 1154.182861328125 -73.71173095703125 1164.86181640625 -70.14357757568359 1175.38916015625 -65.48041534423828 C 1185.340209960938 -61.0725212097168 1195.502685546875 -55.53173446655273 1205.59423828125 -49.01147079467773 C 1215.024169921875 -42.91883850097656 1224.751098632813 -35.7380485534668 1234.504150390625 -27.66857528686523 C 1243.5849609375 -20.15567970275879 1252.695556640625 -11.90541648864746 1262.357055664063 -2.446206331253052 C 1270.961303710938 5.978003978729248 1279.80419921875 15.17116165161133 1289.390747070313 25.65853118896484 C 1307.196044921875 45.13668823242188 1324.869750976563 66.17458343505859 1341.961791992188 86.51984405517578 C 1354.481079101563 101.4219512939453 1367.426635742188 116.831428527832 1380.23388671875 131.3956298828125 C 1394.590209960938 147.7209014892578 1407.29443359375 161.2832641601563 1419.073120117188 172.8574829101563 C 1433.200805664063 186.7403717041016 1446.346069335938 198.1495819091797 1459.259765625 207.7377471923828 C 1466.255493164063 212.9319458007813 1473.268676757813 217.6356353759766 1480.104248046875 221.7180023193359 C 1487.274780273438 226.0003662109375 1494.500732421875 229.7493133544922 1501.581298828125 232.8603668212891 C 1524.700805664063 243.0193176269531 1547.259765625 253.3309020996094 1568.631591796875 263.5087890625 C 1590.876586914063 274.1027526855469 1612.580810546875 284.9064331054688 1633.140747070313 295.6198425292969 C 1654.443481445313 306.7203674316406 1675.20947265625 318.0840454101563 1694.862060546875 329.3956298828125 C 1715.150512695313 341.072998046875 1734.8955078125 353.0645751953125 1753.549194335938 365.0377502441406 C 1772.748413085938 377.3611755371094 1791.389770507813 390.0487976074219 1808.954956054688 402.7480163574219 C 1826.9892578125 415.7861633300781 1844.443481445313 429.2374877929688 1860.833374023438 442.728271484375 C 1877.625 456.5495910644531 1893.809692382813 470.8324890136719 1908.937866210938 485.1798400878906 C 1924.408935546875 499.8524780273438 1939.241088867188 515.0348510742188 1953.022583007813 530.3051147460938 C 1967.09423828125 545.89697265625 1980.491333007813 562.0466918945313 1992.841552734375 578.3056640625 C 2005.43505859375 594.8843383789063 2017.314208984375 612.069580078125 2028.149780273438 629.384033203125 C 2039.18505859375 647.0177612304688 2049.4638671875 665.3067016601563 2058.701171875 683.7432861328125 C 2068.0986328125 702.4995727539063 2076.694580078125 721.9606323242188 2084.250244140625 741.586181640625 C 2091.9296875 761.5330200195313 2098.760009765625 782.23486328125 2104.55126953125 803.11669921875 C 2110.4326171875 824.3222045898438 2115.414306640625 846.333251953125 2119.35791015625 868.5385131835938 C 2123.360107421875 891.0703735351563 2126.409912109375 914.4592895507813 2128.423095703125 938.0551147460938 C 2130.46484375 961.9814453125 2131.5 986.81640625 2131.5 1011.870361328125 C 2131.5 1029.13037109375 2131.03369140625 1046.5927734375 2130.11376953125 1063.77197265625 C 2129.20068359375 1080.820068359375 2127.816650390625 1098.052978515625 2125.999267578125 1114.991943359375 C 2124.1953125 1131.807495117188 2121.91552734375 1148.789794921875 2119.2236328125 1165.467163085938 C 2116.55029296875 1182.029296875 2113.39794921875 1198.739624023438 2109.85400390625 1215.134033203125 C 2106.333251953125 1231.421997070313 2102.330322265625 1247.83935546875 2097.95703125 1263.929809570313 C 2093.6103515625 1279.922485351563 2088.77978515625 1296.025146484375 2083.599853515625 1311.790649414063 C 2078.448974609375 1327.467163085938 2072.813232421875 1343.234375 2066.848876953125 1358.653564453125 C 2060.915771484375 1373.993286132813 2054.497314453125 1389.402954101563 2047.771850585938 1404.454833984375 C 2041.077880859375 1419.436645507813 2033.899169921875 1434.468017578125 2026.435302734375 1449.131469726563 C 2019.002075195313 1463.734375 2011.085571289063 1478.365844726563 2002.90576171875 1492.619873046875 C 1986.619750976563 1520.999877929688 1968.663696289063 1548.978515625 1949.536865234375 1575.779052734375 C 1930.502319335938 1602.449829101563 1909.865844726563 1628.573852539063 1888.200561523438 1653.4248046875 C 1866.588134765625 1678.21533203125 1843.451049804688 1702.313842773438 1819.43212890625 1725.050659179688 C 1795.413208007813 1747.787719726563 1769.955810546875 1769.690063476563 1743.76708984375 1790.149291992188 C 1717.51416015625 1810.658569335938 1689.916870117188 1830.194091796875 1661.741333007813 1848.213012695313 C 1633.428955078125 1866.319580078125 1603.87158203125 1883.317749023438 1573.890258789063 1898.7353515625 C 1543.694213867188 1914.263305664063 1512.357055664063 1928.553588867188 1480.74951171875 1941.208740234375 C 1464.84814453125 1947.57568359375 1448.568481445313 1953.651733398438 1432.362915039063 1959.268798828125 C 1416.073120117188 1964.914794921875 1399.416259765625 1970.250122070313 1382.8544921875 1975.12646484375 C 1366.19921875 1980.030151367188 1349.187377929688 1984.603271484375 1332.291625976563 1988.71826171875 C 1315.292602539063 1992.858520507813 1297.948364257813 1996.647705078125 1280.741088867188 1999.98095703125 C 1263.420776367188 2003.336181640625 1245.766845703125 2006.3203125 1228.269775390625 2008.851196289063 C 1210.650756835938 2011.39990234375 1192.70947265625 2013.557739257813 1174.944458007813 2015.265625 C 1157.048950195313 2016.986206054688 1138.843139648438 2018.296630859375 1120.832397460938 2019.160888671875 C 1102.682861328125 2020.03173828125 1084.234741210938 2020.473266601563 1066 2020.473266601563 Z"/>
    <path class="cls-3" d="M 1110.123413085938 -79.3409423828125 C 1101.57421875 -79.3409423828125 1092.823364257813 -78.9010009765625 1084.114501953125 -78.0330810546875 C 1075.61083984375 -77.1856689453125 1066.90185546875 -75.9058837890625 1058.2294921875 -74.2293701171875 C 1049.774780273438 -72.5948486328125 1041.109985351563 -70.535888671875 1032.47607421875 -68.10986328125 C 1024.074462890625 -65.7491455078125 1015.457153320313 -62.9716796875 1006.863647460938 -59.8548583984375 C 990.453125 -53.90283203125 973.3739013671875 -46.4356689453125 956.10107421875 -37.66064453125 C 940.009765625 -29.4859619140625 923.1610107421875 -19.875732421875 906.02294921875 -9.096435546875 C 890.1163330078125 0.9083251953125 873.986572265625 11.859619140625 856.712646484375 24.3826904296875 C 841.375732421875 35.501708984375 825.523681640625 47.58349609375 808.25048828125 61.31884765625 C 776.2384033203125 86.7745361328125 744.69287109375 113.6925048828125 714.18603515625 139.7239990234375 C 653.8966064453125 191.1688232421875 596.9508056640625 239.7606201171875 543.22265625 271.6669921875 C 502.65576171875 295.7574462890625 466.766845703125 318.1180419921875 433.5045166015625 340.0263671875 C 415.428466796875 351.9322509765625 397.9007568359375 363.8685302734375 381.408203125 375.5037841796875 C 364.0965576171875 387.7166748046875 347.3084716796875 400.0333251953125 331.509765625 412.11083984375 C 315.03369140625 424.7066650390625 299.07470703125 437.4700927734375 284.0758056640625 450.04638671875 C 268.5118408203125 463.09716796875 253.4715576171875 476.3740234375 239.3731689453125 489.508544921875 C 224.801025390625 503.0843505859375 210.76953125 516.941650390625 197.6678466796875 530.695068359375 C 184.169677734375 544.8653564453125 171.236083984375 559.36962890625 159.226318359375 573.8048095703125 C 146.88525390625 588.6380615234375 135.138916015625 603.856201171875 124.3131103515625 619.036376953125 C 113.2139892578125 634.60009765625 102.743896484375 650.5989990234375 93.1942138671875 666.5882568359375 C 83.421630859375 682.950927734375 74.317138671875 699.7977294921875 66.134033203125 716.660888671875 C 57.7734375 733.8895263671875 50.123779296875 751.6519775390625 43.3974609375 769.454345703125 C 36.53466796875 787.616943359375 30.428955078125 806.3624267578125 25.249267578125 825.170166015625 C 19.971435546875 844.3345947265625 15.4990234375 864.131103515625 11.955810546875 884.0101318359375 C 8.349853515625 904.2440185546875 5.60009765625 925.1598510742188 3.78369140625 946.1764526367188 C 1.9365234375 967.5472412109375 1 989.6498413085938 1 1011.870361328125 C 1 1029.121704101563 1.46630859375 1046.574829101563 2.385498046875 1063.7451171875 C 3.298095703125 1080.78466796875 4.681640625 1098.008544921875 6.497802734375 1114.9384765625 C 8.301025390625 1131.745361328125 10.57958984375 1148.71875 13.27001953125 1165.387451171875 C 15.94189453125 1181.94091796875 19.092529296875 1198.642456054688 22.634765625 1215.028564453125 C 26.154052734375 1231.307739257813 30.154541015625 1247.716430664063 34.525634765625 1263.798583984375 C 38.8701171875 1279.782958984375 43.697998046875 1295.877197265625 48.875244140625 1311.63427734375 C 54.0234375 1327.302978515625 59.65625 1343.061767578125 65.617431640625 1358.473022460938 C 71.547607421875 1373.804931640625 77.962646484375 1389.206665039063 84.6844482421875 1404.250610351563 C 91.375244140625 1419.224853515625 98.55029296875 1434.24853515625 106.01025390625 1448.904296875 C 113.439697265625 1463.500122070313 121.35205078125 1478.124267578125 129.5279541015625 1492.370849609375 C 145.8057861328125 1520.736694335938 163.752685546875 1548.701416015625 182.8699951171875 1575.48828125 C 201.895263671875 1602.146118164063 222.5216064453125 1628.257202148438 244.17626953125 1653.09619140625 C 265.7784423828125 1677.874877929688 288.9041748046875 1701.96142578125 312.91162109375 1724.6875 C 336.919189453125 1747.413818359375 362.364501953125 1769.3056640625 388.54052734375 1789.755126953125 C 414.781005859375 1810.2548828125 442.3658447265625 1829.781127929688 470.5281982421875 1847.791748046875 C 498.827392578125 1865.889892578125 528.37109375 1882.880126953125 558.33837890625 1898.290649414063 C 588.5205078125 1913.811401367188 619.8433837890625 1928.095092773438 651.436279296875 1940.74462890625 C 667.33056640625 1947.108276367188 683.6026611328125 1953.182006835938 699.801025390625 1958.796142578125 C 716.0831298828125 1964.439819335938 732.732421875 1969.772705078125 749.28662109375 1974.646728515625 C 765.9344482421875 1979.548217773438 782.938720703125 1984.119262695313 799.8265380859375 1988.232421875 C 816.81787109375 1992.37060546875 834.1541748046875 1996.158569335938 851.35400390625 1999.490112304688 C 868.666259765625 2002.84375 886.3123779296875 2005.82666015625 903.8018798828125 2008.3564453125 C 921.412841796875 2010.90380859375 939.3463134765625 2013.060913085938 957.1033935546875 2014.76806640625 C 974.9908447265625 2016.487426757813 993.188720703125 2017.797485351563 1011.19189453125 2018.661376953125 C 1029.333129882813 2019.531982421875 1047.773193359375 2019.973266601563 1066 2019.973266601563 C 1084.226806640625 2019.973266601563 1102.666870117188 2019.531982421875 1120.80810546875 2018.661376953125 C 1138.811279296875 2017.797485351563 1157.00927734375 2016.487426757813 1174.896606445313 2014.76806640625 C 1192.653686523438 2013.060913085938 1210.587158203125 2010.90380859375 1228.1982421875 2008.3564453125 C 1245.687622070313 2005.82666015625 1263.333740234375 2002.84375 1280.64599609375 1999.490112304688 C 1297.845703125 1996.158569335938 1315.18212890625 1992.37060546875 1332.17333984375 1988.232421875 C 1349.061279296875 1984.119262695313 1366.065551757813 1979.548217773438 1382.71337890625 1974.646728515625 C 1399.267578125 1969.772705078125 1415.916870117188 1964.439819335938 1432.198974609375 1958.796142578125 C 1448.397338867188 1953.182006835938 1464.66943359375 1947.108276367188 1480.563720703125 1940.74462890625 C 1512.156494140625 1928.095092773438 1543.4794921875 1913.811401367188 1573.66162109375 1898.290649414063 C 1603.62890625 1882.880126953125 1633.172607421875 1865.889892578125 1661.471801757813 1847.791748046875 C 1689.63427734375 1829.781127929688 1717.218994140625 1810.2548828125 1743.45947265625 1789.755126953125 C 1769.635498046875 1769.3056640625 1795.080810546875 1747.413818359375 1819.08837890625 1724.6875 C 1843.095825195313 1701.96142578125 1866.221557617188 1677.874877929688 1887.82373046875 1653.09619140625 C 1909.478393554688 1628.257202148438 1930.104736328125 1602.146118164063 1949.130004882813 1575.48828125 C 1968.247314453125 1548.701416015625 1986.194213867188 1520.736694335938 2002.47216796875 1492.370849609375 C 2010.64794921875 1478.124267578125 2018.560302734375 1463.500122070313 2025.98974609375 1448.904296875 C 2033.44970703125 1434.24853515625 2040.624755859375 1419.224853515625 2047.315551757813 1404.250610351563 C 2054.037353515625 1389.206665039063 2060.452392578125 1373.804931640625 2066.382568359375 1358.473022460938 C 2072.34375 1343.061767578125 2077.9765625 1327.302978515625 2083.124755859375 1311.63427734375 C 2088.302001953125 1295.877197265625 2093.1298828125 1279.782958984375 2097.474365234375 1263.798583984375 C 2101.845458984375 1247.716430664063 2105.845947265625 1231.307739257813 2109.365234375 1215.028564453125 C 2112.907470703125 1198.642456054688 2116.05810546875 1181.94091796875 2118.72998046875 1165.387451171875 C 2121.42041015625 1148.71875 2123.698974609375 1131.745361328125 2125.502197265625 1114.9384765625 C 2127.318359375 1098.008544921875 2128.701904296875 1080.78466796875 2129.614501953125 1063.7451171875 C 2130.53369140625 1046.574829101563 2131 1029.121704101563 2131 1011.870361328125 C 2131 986.8303833007813 2129.965576171875 962.0098266601563 2127.925048828125 938.0977172851563 C 2125.912841796875 914.5167236328125 2122.864990234375 891.1429443359375 2118.86572265625 868.6258544921875 C 2114.9248046875 846.4361572265625 2109.946533203125 824.440673828125 2104.06982421875 803.2503662109375 C 2098.28271484375 782.384033203125 2091.457275390625 761.69775390625 2083.78369140625 741.765625 C 2076.233642578125 722.1553955078125 2067.644287109375 702.7091064453125 2058.254150390625 683.9671630859375 C 2049.02392578125 665.5445556640625 2038.752685546875 647.26953125 2027.725830078125 629.6492919921875 C 2016.8984375 612.3475341796875 2005.027587890625 595.1748046875 1992.443359375 578.6080322265625 C 1980.1015625 562.360107421875 1966.713623046875 546.221435546875 1952.6513671875 530.64013671875 C 1938.87841796875 515.3792724609375 1924.055541992188 500.2064208984375 1908.59375 485.542724609375 C 1893.473999023438 471.2030029296875 1877.298095703125 456.927978515625 1860.515502929688 443.114013671875 C 1844.133666992188 429.630126953125 1826.687622070313 416.18505859375 1808.662109375 403.1529541015625 C 1791.104248046875 390.4591064453125 1772.470458984375 377.7767333984375 1753.279174804688 365.45849609375 C 1734.63232421875 353.4896240234375 1714.893920898438 341.502197265625 1694.612915039063 329.8287353515625 C 1674.966064453125 318.5208740234375 1654.206298828125 307.16064453125 1632.90966796875 296.063232421875 C 1612.35498046875 285.3524169921875 1590.65625 274.5513916015625 1568.41650390625 263.9600830078125 C 1547.049194335938 253.7845458984375 1524.494995117188 243.47509765625 1501.380004882813 233.3182373046875 C 1494.280517578125 230.1988525390625 1487.0361328125 226.4400634765625 1479.847900390625 222.147216796875 C 1472.998168945313 218.05615234375 1465.971069335938 213.34326171875 1458.961669921875 208.1390380859375 C 1446.029296875 198.5372314453125 1432.8671875 187.11328125 1418.72265625 173.214111328125 C 1406.935546875 161.631103515625 1394.222900390625 148.0604248046875 1379.8583984375 131.7255859375 C 1367.04736328125 117.157470703125 1354.099975585938 101.74560546875 1341.578857421875 86.8414306640625 C 1324.490234375 66.5001220703125 1306.820068359375 45.4661865234375 1289.021606445313 25.995849609375 C 1279.44140625 15.515380859375 1270.604736328125 6.3287353515625 1262.007080078125 -2.0888671875 C 1252.355712890625 -11.538330078125 1243.255249023438 -19.7794189453125 1234.185546875 -27.2833251953125 C 1224.447387695313 -35.3404541015625 1214.736572265625 -42.5093994140625 1205.322875976563 -48.5914306640625 C 1195.253173828125 -55.0975341796875 1185.114013671875 -60.6259765625 1175.186767578125 -65.0233154296875 C 1164.689208984375 -69.67333984375 1154.041259765625 -73.231201171875 1143.538696289063 -75.5980224609375 C 1132.518920898438 -78.081787109375 1121.2763671875 -79.3409423828125 1110.123413085938 -79.3409423828125 M 1110.123413085938 -80.3409423828125 C 1270.259765625 -80.3409423828125 1364.7568359375 172.1927490234375 1501.782348632813 232.4027099609375 C 1865.789184570313 392.3485107421875 2132 606.147216796875 2132 1011.870361328125 C 2132 1569.182250976563 1654.735595703125 2020.973266601563 1066 2020.973266601563 C 477.2645263671875 2020.973266601563 0 1569.182250976563 0 1011.870361328125 C 0 651.28955078125 241.649169921875 449.5921630859375 542.712158203125 270.8072509765625 C 706.105224609375 173.7763671875 902.2996826171875 -80.3409423828125 1110.123413085938 -80.3409423828125 Z"/>
  </g>
</svg>
