<svg xmlns="http://www.w3.org/2000/svg" viewBox="1000 400 2500 2000">
  <defs>
    <style>
      .cls-1 {
        fill: #fff;
      }

      .cls-2, .cls-3 {
        stroke: none;
      }

      .cls-3 {
        fill: #707070;
      }
    </style>
  </defs>
  <g id="Path_40" data-name="Path 40" class="cls-1" transform="translate(839.045 2719.916) rotate(-111)">
    <path class="cls-2" d="M 116.8445892333984 2035.178833007813 C 113.3251419067383 2035.178833007813 109.8293075561523 2034.301147460938 106.4540328979492 2032.569702148438 C 103.1279220581055 2030.863647460938 99.82431030273438 2028.281127929688 96.63486480712891 2024.893920898438 C 93.49736785888672 2021.561889648438 90.38542175292969 2017.361328125 87.38569641113281 2012.408569335938 C 84.44403076171875 2007.551635742188 81.52986907958984 2001.8388671875 78.72402954101563 1995.42919921875 C 73.29264068603516 1983.0205078125 68.04986572265625 1967.502807617188 63.14153289794922 1949.307250976563 C 58.46125411987305 1931.956665039063 53.96236419677734 1911.716064453125 49.76958847045898 1889.1474609375 C 45.78820037841797 1867.716430664063 41.97875595092773 1843.626342773438 38.44736480712891 1817.546630859375 C 35.10931015014648 1792.89306640625 31.93292236328125 1765.823608398438 29.00708770751953 1737.090209960938 C 23.6793098449707 1684.771606445313 18.99681091308594 1625.170043945313 15.08986568450928 1559.940795898438 C 11.73236560821533 1503.887817382813 8.892921447753906 1442.79052734375 6.650421619415283 1378.345581054688 C 4.809588432312012 1325.447509765625 3.352365970611572 1269.798095703125 2.319032669067383 1212.943359375 C 0.4965326488018036 1112.658569335938 0.4993104338645935 1037.845581054688 0.5001437664031982 1013.261352539063 L 0.5001437664031982 1011.870544433594 C 0.5001437664031982 989.6355590820313 1.437366008758545 967.5186157226563 3.285699367523193 946.13330078125 C 5.103477001190186 925.1019287109375 7.854866027832031 904.1710815429688 11.46375465393066 883.9224853515625 C 15.00931072235107 864.0286254882813 19.48542213439941 844.2166748046875 24.76736640930176 825.0374755859375 C 29.95097732543945 806.2149658203125 36.06180953979492 787.4547119140625 42.92958831787109 769.2774658203125 C 49.6612548828125 751.4611206054688 57.31708908081055 733.6846923828125 65.68431091308594 716.4425048828125 C 73.87375640869141 699.56640625 82.98514556884766 682.7066650390625 92.76514434814453 666.3319091796875 C 102.3218078613281 650.3311157226563 112.7993087768555 634.32080078125 123.9062576293945 618.745849609375 C 134.7390289306641 603.5555419921875 146.4931945800781 588.3277587890625 158.8418121337891 573.4849853515625 C 170.8590393066406 559.0413818359375 183.8001403808594 544.5286254882813 197.3059844970703 530.3502807617188 C 210.414306640625 516.5894165039063 224.4532012939453 502.7252807617188 239.0323638916016 489.1427612304688 C 253.1373596191406 476.002197265625 268.1840209960938 462.7194213867188 283.7545776367188 449.663330078125 C 298.759033203125 437.0819396972656 314.7240295410156 424.3138732910156 331.2062683105469 411.7138671875 C 347.0098571777344 399.6322021484375 363.8031921386719 387.3119201660156 381.1201477050781 375.0952758789063 C 397.6168212890625 363.4569396972656 415.1490478515625 351.5174865722656 433.2295837402344 339.6086120605469 C 466.4981994628906 317.6961059570313 502.3937683105469 295.3316650390625 542.9673461914063 271.2372131347656 C 596.6587524414063 239.3527679443359 653.5887451171875 190.7741546630859 713.8615112304688 139.3435974121094 C 744.3715209960938 113.3091583251953 775.92041015625 86.38860321044922 807.9393310546875 60.927490234375 C 825.218505859375 47.1874885559082 841.0762329101563 35.10110092163086 856.4190063476563 23.97804641723633 C 873.7020874023438 11.44832324981689 889.8406982421875 0.491101086139679 905.7568359375 -9.519732475280762 C 922.9076538085938 -20.30695533752441 939.7695922851563 -29.92501068115234 955.8745727539063 -38.10639953613281 C 973.1657104492188 -46.89056396484375 990.2634887695313 -54.3658447265625 1006.693176269531 -60.32473373413086 C 1015.298217773438 -63.44584274291992 1023.927368164063 -66.22695159912109 1032.340942382813 -68.59111785888672 C 1040.988159179688 -71.0211181640625 1049.666259765625 -73.08306884765625 1058.134643554688 -74.72000885009766 C 1066.82177734375 -76.39945220947266 1075.546264648438 -77.681396484375 1084.064819335938 -78.53056335449219 C 1092.790405273438 -79.40000915527344 1101.5576171875 -79.84084320068359 1110.12353515625 -79.84084320068359 C 1121.313232421875 -79.84084320068359 1132.592651367188 -78.57750701904297 1143.648803710938 -76.08584594726563 C 1154.182861328125 -73.71167755126953 1164.86181640625 -70.14362335205078 1175.389282226563 -65.48028564453125 C 1185.340087890625 -61.072509765625 1195.502685546875 -55.53139877319336 1205.594360351563 -49.01139831542969 C 1215.024291992188 -42.91862106323242 1224.7509765625 -35.73806381225586 1234.504272460938 -27.66862106323242 C 1243.584838867188 -20.15556526184082 1252.695678710938 -11.90528774261475 1262.357055664063 -2.446121215820313 C 1270.961303710938 5.978323459625244 1279.804077148438 15.17137908935547 1289.390747070313 25.65860176086426 C 1307.195922851563 45.13665771484375 1324.869873046875 66.17471313476563 1341.961791992188 86.51998901367188 C 1354.48095703125 101.4222106933594 1367.426513671875 116.831657409668 1380.233764648438 131.3955383300781 C 1394.590087890625 147.7210998535156 1407.294555664063 161.2833251953125 1419.0732421875 172.8577728271484 C 1433.200927734375 186.7405395507813 1446.345947265625 198.1499938964844 1459.259643554688 207.7380523681641 C 1466.255737304688 212.9322052001953 1473.268798828125 217.6358184814453 1480.104370117188 221.7180480957031 C 1487.27490234375 226.0005493164063 1494.500732421875 229.7494354248047 1501.581298828125 232.8608245849609 C 1524.70068359375 243.0197143554688 1547.259887695313 253.3311004638672 1568.631591796875 263.5091552734375 C 1590.876831054688 274.1030578613281 1612.580688476563 284.9066467285156 1633.140747070313 295.6199951171875 C 1654.443481445313 306.7205505371094 1675.209594726563 318.0841674804688 1694.862426757813 329.3958129882813 C 1715.150390625 341.0730590820313 1734.895751953125 353.064697265625 1753.54931640625 365.0377807617188 C 1772.74853515625 377.3611145019531 1791.3896484375 390.0486145019531 1808.955200195313 402.748046875 C 1826.9892578125 415.786376953125 1844.443481445313 429.2374877929688 1860.83349609375 442.7283325195313 C 1877.625122070313 456.5497131347656 1893.809814453125 470.8324890136719 1908.937866210938 485.1799926757813 C 1924.409057617188 499.8524780273438 1939.2412109375 515.0349731445313 1953.022583007813 530.3049926757813 C 1967.094360351563 545.8969116210938 1980.491577148438 562.046630859375 1992.841796875 578.3058471679688 C 2005.434814453125 594.8844604492188 2017.314331054688 612.0697021484375 2028.14990234375 629.3841552734375 C 2039.185180664063 647.0177612304688 2049.464111328125 665.306640625 2058.701171875 683.7433471679688 C 2068.0986328125 702.4994506835938 2076.694580078125 721.9605712890625 2084.25048828125 741.5861206054688 C 2091.929931640625 761.5330200195313 2098.76025390625 782.2349853515625 2104.551513671875 803.1166381835938 C 2110.4326171875 824.3222045898438 2115.414306640625 846.3333129882813 2119.358154296875 868.53857421875 C 2123.360107421875 891.070556640625 2126.41015625 914.4594116210938 2128.423583984375 938.0552978515625 C 2130.46484375 961.9813842773438 2131.500244140625 986.81640625 2131.500244140625 1011.870544433594 C 2131.500244140625 1046.771362304688 2130.61376953125 1081.244140625 2128.865478515625 1114.331420898438 C 2127.093505859375 1147.869995117188 2124.386474609375 1180.916625976563 2120.8203125 1212.553344726563 C 2117.205322265625 1244.619750976563 2112.607177734375 1276.129760742188 2107.15283203125 1306.20751953125 C 2101.624755859375 1336.692260742188 2095.063720703125 1366.554931640625 2087.651611328125 1394.966430664063 C 2080.139892578125 1423.759765625 2071.544921875 1451.865234375 2062.105224609375 1478.502197265625 C 2052.539306640625 1505.494384765625 2041.83935546875 1531.732177734375 2030.302124023438 1556.486938476563 C 2018.612060546875 1581.569213867188 2005.735961914063 1605.829467773438 1992.031494140625 1628.593872070313 C 1985.112060546875 1640.087768554688 1977.835693359375 1651.44189453125 1970.404907226563 1662.341430664063 C 1962.925170898438 1673.311889648438 1955.078247070313 1684.130493164063 1947.081787109375 1694.496948242188 C 1939.033203125 1704.930786132813 1930.606567382813 1715.200317382813 1922.036010742188 1725.020263671875 C 1913.409545898438 1734.903930664063 1904.394287109375 1744.610595703125 1895.24072265625 1753.87060546875 C 1886.027587890625 1763.190307617188 1876.414916992188 1772.3203125 1866.669067382813 1781.006958007813 C 1856.860717773438 1789.749389648438 1846.641235351563 1798.289184570313 1836.294921875 1806.388916015625 C 1825.882080078125 1814.54052734375 1815.047119140625 1822.476318359375 1804.090698242188 1829.975830078125 C 1793.064575195313 1837.523315429688 1781.605102539063 1844.841430664063 1770.030151367188 1851.726928710938 C 1758.3818359375 1858.656372070313 1746.288452148438 1865.343017578125 1734.0859375 1871.601318359375 C 1721.806518554688 1877.899169921875 1709.070434570313 1883.940551757813 1696.231567382813 1889.55810546875 C 1683.312133789063 1895.210571289063 1669.924072265625 1900.593383789063 1656.439819335938 1905.55615234375 C 1642.871215820313 1910.550048828125 1628.822631835938 1915.259765625 1614.68408203125 1919.554443359375 C 1600.457397460938 1923.876098632813 1585.739013671875 1927.899169921875 1570.937133789063 1931.51220703125 C 1556.043701171875 1935.147827148438 1540.646484375 1938.470581054688 1525.172607421875 1941.388305664063 C 1509.603515625 1944.323852539063 1493.518432617188 1946.932495117188 1477.36376953125 1949.14111328125 C 1461.110107421875 1951.36328125 1444.327880859375 1953.24365234375 1427.483520507813 1954.72998046875 C 1410.536499023438 1956.224975585938 1393.048706054688 1957.36328125 1375.505737304688 1958.11328125 C 1357.856567382813 1958.867797851563 1339.654052734375 1959.250244140625 1321.403442382813 1959.250244140625 C 1318.51904296875 1959.250244140625 1313.792602539063 1958.126342773438 1307.35546875 1955.90966796875 C 1302.176025390625 1954.126342773438 1295.897583007813 1951.638305664063 1288.695190429688 1948.515014648438 C 1276.423461914063 1943.193603515625 1265.586791992188 1937.803588867188 1265.478759765625 1937.749755859375 L 1265.454345703125 1937.737548828125 L 1265.429077148438 1937.72802734375 C 1265.317138671875 1937.686889648438 1254.077392578125 1933.52197265625 1238.983520507813 1926.733642578125 C 1230.120361328125 1922.747436523438 1221.682861328125 1918.650268554688 1213.904541015625 1914.555541992188 C 1204.1865234375 1909.439697265625 1195.477416992188 1904.314208984375 1188.018798828125 1899.32080078125 C 1180.564575195313 1894.33056640625 1173.117309570313 1888.640869140625 1165.88427734375 1882.40966796875 C 1160.096313476563 1877.423583984375 1154.431274414063 1872.081420898438 1149.04736328125 1866.531982421875 C 1139.8779296875 1857.0810546875 1134.63623046875 1850.216064453125 1134.584350585938 1850.148071289063 L 1134.57177734375 1850.131713867188 L 1134.558227539063 1850.116333007813 C 1133.89990234375 1849.38330078125 1068.39013671875 1776.388916015625 1039.157104492188 1740.381713867188 L 1039.141235351563 1740.362182617188 L 1039.123779296875 1740.344482421875 C 1028.058471679688 1729.209716796875 1017.645446777344 1718.36328125 1007.575439453125 1707.873901367188 C 996.1026611328125 1695.923583984375 985.2659912109375 1684.636108398438 974.6820678710938 1674.19140625 C 962.809326171875 1662.475219726563 952.908447265625 1653.453369140625 943.5234985351563 1645.799194335938 C 920.8309936523438 1627.291625976563 900.6329345703125 1616.60693359375 879.9590454101563 1612.17333984375 C 875.1709594726563 1611.146362304688 870.6790161132813 1610.161376953125 866.3351440429688 1609.208862304688 C 842.6571044921875 1604.016357421875 825.54931640625 1600.264770507813 807.9676513671875 1600.264770507813 C 801.3662719726563 1600.264770507813 794.8887329101563 1600.79248046875 788.1654052734375 1601.878295898438 C 757.1284790039063 1606.890502929688 721.5965576171875 1620.924194335938 657.0923461914063 1646.400268554688 L 652.8265380859375 1648.0849609375 C 644.8154296875 1651.248657226563 636.2882080078125 1655.95947265625 626.7576293945313 1662.487182617188 C 618.1998901367188 1668.3486328125 608.9590454101563 1675.596435546875 598.5068359375 1684.644409179688 C 578.980712890625 1701.547729492188 558.1073608398438 1722.2578125 536.0084838867188 1744.183837890625 C 519.7970581054688 1760.2685546875 503.0337524414063 1776.90087890625 485.6929321289063 1793.133544921875 C 466.0587463378906 1811.513061523438 448.543212890625 1826.665771484375 432.1451416015625 1839.457763671875 C 404.271240234375 1861.20166015625 373.0884704589844 1882.84521484375 336.8151550292969 1905.625 C 304.9437561035156 1925.640502929688 273.8421020507813 1943.638305664063 243.7645874023438 1961.043579101563 C 222.9476470947266 1973.089965820313 203.2848663330078 1984.468383789063 184.8329162597656 1995.67724609375 C 164.0959777832031 2008.27392578125 147.9420928955078 2018.803344726563 133.9956970214844 2028.814208984375 C 131.0287475585938 2030.94384765625 128.0665283203125 2032.559692382813 125.191535949707 2033.61669921875 C 122.3720855712891 2034.6533203125 119.5637512207031 2035.178833007813 116.8445892333984 2035.178833007813 Z"/>
    <path class="cls-3" d="M 1110.12353515625 -79.3409423828125 C 1101.574340820313 -79.3409423828125 1092.823486328125 -78.9007568359375 1084.114624023438 -78.0328369140625 C 1075.610961914063 -77.1856689453125 1066.90185546875 -75.9058837890625 1058.229370117188 -74.2291259765625 C 1049.77490234375 -72.5948486328125 1041.110107421875 -70.5357666015625 1032.476196289063 -68.1097412109375 C 1024.074584960938 -65.7489013671875 1015.45703125 -62.9715576171875 1006.86376953125 -59.8546142578125 C 990.4532470703125 -53.9027099609375 973.3740234375 -46.4356689453125 956.1009521484375 -37.6605224609375 C 940.0096435546875 -29.4862060546875 923.1610107421875 -19.8756103515625 906.02294921875 -9.0963134765625 C 890.1162109375 0.9083251953125 873.986572265625 11.859375 856.71240234375 24.3828125 C 841.375732421875 35.501708984375 825.5238037109375 47.5833740234375 808.2503662109375 61.31884765625 C 776.238525390625 86.7744140625 744.69287109375 113.6922607421875 714.18603515625 139.723876953125 C 653.896484375 191.1685791015625 596.95068359375 239.760498046875 543.22265625 271.6666259765625 C 502.6556396484375 295.7572021484375 466.766845703125 318.1177978515625 433.504638671875 340.026123046875 C 415.428466796875 351.931884765625 397.9007568359375 363.8682861328125 381.408203125 375.5035400390625 C 364.0968017578125 387.7166748046875 347.3084716796875 400.0330810546875 331.5098876953125 412.11083984375 C 315.0338134765625 424.7066650390625 299.0745849609375 437.469970703125 284.075927734375 450.04638671875 C 268.5118408203125 463.096923828125 253.4715576171875 476.3739013671875 239.3731689453125 489.50830078125 C 224.801025390625 503.0841064453125 210.769287109375 516.94140625 197.66796875 530.6953125 C 184.169921875 544.865234375 171.2359619140625 559.3697509765625 159.2261962890625 573.804931640625 C 146.8851318359375 588.6380615234375 135.1387939453125 603.8560791015625 124.313232421875 619.036376953125 C 113.2139892578125 634.6002197265625 102.7440185546875 650.598876953125 93.194091796875 666.58837890625 C 83.4215087890625 682.9508056640625 74.317138671875 699.7974853515625 66.1337890625 716.6607666015625 C 57.773193359375 733.889404296875 50.12353515625 751.6519775390625 43.39697265625 769.4544677734375 C 36.53466796875 787.616943359375 30.4287109375 806.362548828125 25.249267578125 825.1702880859375 C 19.97119140625 844.334716796875 15.498779296875 864.13134765625 11.955810546875 884.01025390625 C 8.349609375 904.244140625 5.599853515625 925.1600341796875 3.783447265625 946.1763916015625 C 1.9365234375 967.5472412109375 0.999755859375 989.6500244140625 0.999755859375 1011.87060546875 L 0.999755859375 1013.260864257813 C 0.9990234375 1037.843627929688 0.996337890625 1112.652465820313 2.81884765625 1212.932495117188 C 3.85205078125 1269.784423828125 5.309326171875 1325.43115234375 7.14990234375 1378.32666015625 C 9.39208984375 1442.767578125 12.2314453125 1503.86083984375 15.5888671875 1559.90966796875 C 19.495361328125 1625.131958007813 24.177001953125 1684.726684570313 29.50439453125 1737.038818359375 C 32.4296875 1765.7666015625 35.605224609375 1792.83056640625 38.942626953125 1817.478881835938 C 42.472900390625 1843.550537109375 46.281005859375 1867.632446289063 50.260986328125 1889.055786132813 C 54.451171875 1911.611328125 58.947265625 1931.8388671875 63.6240234375 1949.176635742188 C 68.52587890625 1967.3486328125 73.760498046875 1982.8427734375 79.18212890625 1995.228637695313 C 81.978759765625 2001.618286132813 84.8826904296875 2007.311157226563 87.813232421875 2012.1494140625 C 90.794921875 2017.072265625 93.8853759765625 2021.244750976563 96.998779296875 2024.551147460938 C 100.1490478515625 2027.896606445313 103.4068603515625 2030.444702148438 106.68212890625 2032.124755859375 C 109.9859619140625 2033.819458007813 113.4051513671875 2034.678833007813 116.8443603515625 2034.678833007813 C 119.504638671875 2034.678833007813 122.2548828125 2034.16357421875 125.018798828125 2033.1474609375 C 127.8511962890625 2032.106079101563 130.7734375 2030.511352539063 133.7039794921875 2028.40771484375 C 147.6610107421875 2018.389404296875 163.8251953125 2007.853271484375 184.5732421875 1995.249755859375 C 203.0301513671875 1984.0380859375 222.69482421875 1972.658325195313 243.5146484375 1960.610595703125 C 273.5882568359375 1943.20751953125 304.6856689453125 1925.2119140625 336.549560546875 1905.201416015625 C 372.8082275390625 1882.430541992188 403.97705078125 1860.796630859375 431.837646484375 1839.063354492188 C 448.2235107421875 1826.28076171875 465.7279052734375 1811.137817382813 485.3509521484375 1792.7685546875 C 502.6865234375 1776.540771484375 519.4471435546875 1759.9111328125 535.656005859375 1743.8291015625 C 557.760986328125 1721.89697265625 578.64013671875 1701.18115234375 598.1793212890625 1684.266357421875 C 608.64599609375 1675.205810546875 617.9014892578125 1667.946899414063 626.474853515625 1662.07470703125 C 636.036865234375 1655.525512695313 644.5965576171875 1650.797485351563 652.6429443359375 1647.619995117188 L 656.9112548828125 1645.93408203125 C 721.446533203125 1620.445556640625 756.9957275390625 1606.4052734375 788.085693359375 1601.384765625 C 794.8350830078125 1600.294677734375 801.3387451171875 1599.7646484375 807.9678955078125 1599.7646484375 C 825.603515625 1599.7646484375 842.7337646484375 1603.521362304688 866.442626953125 1608.720581054688 C 870.7860107421875 1609.673095703125 875.277099609375 1610.65771484375 880.0640869140625 1611.684448242188 C 900.8182373046875 1616.13525390625 921.08349609375 1626.8525390625 943.83984375 1645.41162109375 C 953.2374267578125 1653.076171875 963.1492919921875 1662.108032226563 975.0338134765625 1673.835815429688 C 985.622314453125 1684.285034179688 996.4613037109375 1695.574951171875 1007.9365234375 1707.528076171875 C 1018.0048828125 1718.015502929688 1028.416259765625 1728.860229492188 1039.478515625 1739.99169921875 L 1039.513793945313 1740.027465820313 L 1039.54541015625 1740.06640625 C 1068.770385742188 1776.063842773438 1134.272094726563 1849.049438476563 1134.930419921875 1849.782470703125 L 1134.957641601563 1849.812744140625 L 1134.982421875 1849.84521484375 C 1135.034057617188 1849.91357421875 1140.266235351563 1856.765014648438 1149.418701171875 1866.196899414063 C 1154.79150390625 1871.73388671875 1160.444091796875 1877.063842773438 1166.219604492188 1882.03857421875 C 1173.4345703125 1888.253295898438 1180.862670898438 1893.928344726563 1188.297119140625 1898.9052734375 C 1195.739501953125 1903.888061523438 1204.43212890625 1909.00390625 1214.132934570313 1914.11083984375 C 1221.901000976563 1918.200317382813 1230.328125 1922.29248046875 1239.1806640625 1926.274169921875 C 1254.260498046875 1933.056396484375 1265.490478515625 1937.2177734375 1265.60205078125 1937.259155273438 L 1265.653198242188 1937.278076171875 L 1265.701538085938 1937.30224609375 C 1265.8095703125 1937.355834960938 1276.63427734375 1942.739990234375 1288.89404296875 1948.056396484375 C 1305.027587890625 1955.05224609375 1316.26904296875 1958.750244140625 1321.403564453125 1958.750244140625 C 1339.646728515625 1958.750244140625 1357.84228515625 1958.367797851563 1375.484375 1957.613891601563 C 1393.019775390625 1956.864135742188 1410.500122070313 1955.726318359375 1427.439575195313 1954.23193359375 C 1444.276245117188 1952.746337890625 1461.050170898438 1950.866943359375 1477.2958984375 1948.645874023438 C 1493.4423828125 1946.43798828125 1509.519287109375 1943.8310546875 1525.079833984375 1940.89697265625 C 1540.545166015625 1937.980834960938 1555.933837890625 1934.660034179688 1570.818481445313 1931.026611328125 C 1585.611328125 1927.415771484375 1600.321044921875 1923.39501953125 1614.538818359375 1919.076049804688 C 1628.66796875 1914.7841796875 1642.707641601563 1910.077514648438 1656.26708984375 1905.0869140625 C 1669.742065429688 1900.12744140625 1683.120727539063 1894.74853515625 1696.03125 1889.099975585938 C 1708.860717773438 1883.486694335938 1721.58740234375 1877.449462890625 1733.85791015625 1871.156372070313 C 1746.051025390625 1864.90283203125 1758.135131835938 1858.221435546875 1769.774291992188 1851.297241210938 C 1781.340087890625 1844.4169921875 1792.791015625 1837.104736328125 1803.808227539063 1829.563354492188 C 1814.755737304688 1822.069702148438 1825.58203125 1814.140258789063 1835.986572265625 1805.995239257813 C 1846.324584960938 1797.901977539063 1856.536010742188 1789.369140625 1866.336181640625 1780.633544921875 C 1876.074340820313 1771.953857421875 1885.679321289063 1762.831420898438 1894.884887695313 1753.518920898438 C 1904.031494140625 1744.26611328125 1913.03955078125 1734.567138671875 1921.659057617188 1724.69140625 C 1930.22314453125 1714.879150390625 1938.643432617188 1704.617431640625 1946.685668945313 1694.191650390625 C 1954.67626953125 1683.832763671875 1962.517333984375 1673.022216796875 1969.991577148438 1662.059692382813 C 1977.417358398438 1651.168090820313 1984.6884765625 1639.821655273438 1991.602905273438 1628.336059570313 C 2005.298461914063 1605.586669921875 2018.166259765625 1581.34228515625 2029.848754882813 1556.275512695313 C 2041.379272460938 1531.535522460938 2052.0732421875 1505.3125 2061.633544921875 1478.3349609375 C 2071.068359375 1451.71142578125 2079.659423828125 1423.61962890625 2087.16748046875 1394.84033203125 C 2094.576416015625 1366.441162109375 2101.134765625 1336.590576171875 2106.66064453125 1306.118408203125 C 2112.113037109375 1276.051391601563 2116.70947265625 1244.552734375 2120.3232421875 1212.497192382813 C 2123.888427734375 1180.87060546875 2126.59423828125 1147.833862304688 2128.365966796875 1114.304931640625 C 2130.11376953125 1081.226684570313 2130.999755859375 1046.7626953125 2130.999755859375 1011.87060546875 C 2130.999755859375 986.83056640625 2129.96533203125 962.010009765625 2127.9248046875 938.0977783203125 C 2125.912841796875 914.5169677734375 2122.86474609375 891.14306640625 2118.86572265625 868.6260986328125 C 2114.924560546875 846.4361572265625 2109.9462890625 824.4407958984375 2104.069580078125 803.250244140625 C 2098.282470703125 782.3841552734375 2091.457275390625 761.69775390625 2083.783447265625 741.765869140625 C 2076.2333984375 722.1552734375 2067.644287109375 702.7091064453125 2058.254150390625 683.9671630859375 C 2049.023681640625 665.544677734375 2038.752685546875 647.2696533203125 2027.725708007813 629.6494140625 C 2016.898193359375 612.3477783203125 2005.02734375 595.175048828125 1992.443481445313 578.6080322265625 C 1980.1015625 562.3602294921875 1966.713500976563 546.221435546875 1952.651245117188 530.6400146484375 C 1938.87841796875 515.37939453125 1924.05517578125 500.2064208984375 1908.59375 485.542724609375 C 1893.473999023438 471.2030029296875 1877.298217773438 456.9281005859375 1860.515380859375 443.1141357421875 C 1844.1337890625 429.6300048828125 1826.687622070313 416.185302734375 1808.662109375 403.153076171875 C 1791.10400390625 390.4591064453125 1772.470458984375 377.7769775390625 1753.279052734375 365.4586181640625 C 1734.632080078125 353.48974609375 1714.89404296875 341.502197265625 1694.612670898438 329.828857421875 C 1674.965942382813 318.5208740234375 1654.206298828125 307.1605224609375 1632.909545898438 296.0633544921875 C 1612.354858398438 285.3525390625 1590.65625 274.5516357421875 1568.41650390625 263.9603271484375 C 1547.04931640625 253.784423828125 1524.4951171875 243.4749755859375 1501.380126953125 233.318359375 C 1494.28076171875 230.1986083984375 1487.036254882813 226.4403076171875 1479.847900390625 222.147216796875 C 1472.998168945313 218.056396484375 1465.970947265625 213.3433837890625 1458.961547851563 208.13916015625 C 1446.029296875 198.5372314453125 1432.866821289063 187.11328125 1418.72265625 173.214111328125 C 1406.935424804688 161.63134765625 1394.22265625 148.060302734375 1379.858154296875 131.7255859375 C 1367.047119140625 117.157470703125 1354.099853515625 101.74560546875 1341.578735351563 86.8414306640625 C 1324.490234375 66.5 1306.81982421875 45.4664306640625 1289.021484375 25.995849609375 C 1279.441284179688 15.5155029296875 1270.604614257813 6.328857421875 1262.007080078125 -2.0888671875 C 1252.355712890625 -11.5379638671875 1243.255126953125 -19.7794189453125 1234.185424804688 -27.2833251953125 C 1224.447021484375 -35.3402099609375 1214.736572265625 -42.5093994140625 1205.322998046875 -48.5914306640625 C 1195.253173828125 -55.0975341796875 1185.114013671875 -60.6258544921875 1175.186767578125 -65.0233154296875 C 1164.68896484375 -69.6734619140625 1154.041259765625 -73.2310791015625 1143.538818359375 -75.5980224609375 C 1132.518798828125 -78.0816650390625 1121.276245117188 -79.3409423828125 1110.12353515625 -79.3409423828125 M 1110.12353515625 -80.3409423828125 C 1270.259521484375 -80.3409423828125 1364.7568359375 172.1927490234375 1501.782348632813 232.4027099609375 C 1865.7890625 392.3486328125 2131.999755859375 606.147216796875 2131.999755859375 1011.87060546875 C 2131.999755859375 1569.182495117188 1910.139038085938 1959.750244140625 1321.403564453125 1959.750244140625 C 1308.514282226563 1959.750244140625 1265.255615234375 1938.197265625 1265.255615234375 1938.197265625 C 1265.255615234375 1938.197265625 1220.507934570313 1921.673095703125 1187.74072265625 1899.736328125 C 1154.973388671875 1877.799682617188 1134.186279296875 1850.450561523438 1134.186279296875 1850.450561523438 C 1134.186279296875 1850.450561523438 1068.34814453125 1777.130249023438 1038.76904296875 1740.696655273438 C 977.226806640625 1678.76806640625 934.54736328125 1624.391357421875 879.8543701171875 1612.662231445313 C 848.7596435546875 1605.993896484375 828.6864013671875 1600.7646484375 807.9678955078125 1600.7646484375 C 801.5692138671875 1600.7646484375 795.111083984375 1601.263061523438 788.2451171875 1602.371948242188 C 756.5845947265625 1607.484741210938 720.1429443359375 1622.039184570313 653.0101318359375 1648.550048828125 C 595.70458984375 1671.179931640625 519.1943359375 1772.185791015625 432.45263671875 1839.851684570313 C 326.5048828125 1922.5 208.6529541015625 1975.840576171875 134.287109375 2029.22021484375 C 128.207763671875 2033.583984375 122.3856201171875 2035.678833007813 116.84423828125 2035.678833007813 C -0.635986328125 2035.678833007813 -0.000244140625 1098.387939453125 -0.000244140625 1011.87060546875 C -0.000244140625 651.2894287109375 241.6492919921875 449.5921630859375 542.7120361328125 270.806884765625 C 706.10546875 173.776123046875 902.299560546875 -80.3409423828125 1110.12353515625 -80.3409423828125 Z"/>
  </g>
</svg>
